<mxfile host="Electron" modified="2024-02-25T16:11:20.985Z" agent="Mozilla/5.0 (X11; Linux x86_64) AppleWebKit/537.36 (KHTML, like Gecko) draw.io/23.1.5 Chrome/120.0.6099.109 Electron/28.2.4 Safari/537.36" etag="v-kM-GT3_05md_LhcSUM" version="23.1.5" type="device">
  <diagram name="Page-1" id="jwIUeSGBcwA--1RXkkxF">
    <mxGraphModel dx="2219" dy="1025" grid="1" gridSize="10" guides="1" tooltips="1" connect="1" arrows="1" fold="1" page="1" pageScale="1" pageWidth="827" pageHeight="1169" math="0" shadow="0">
      <root>
        <mxCell id="0" />
        <mxCell id="1" parent="0" />
        <mxCell id="QYKZDcX1cYeZKk25ewr2-12" value="" style="endArrow=classic;html=1;rounded=0;" edge="1" parent="1">
          <mxGeometry relative="1" as="geometry">
            <mxPoint x="40" y="100" as="sourcePoint" />
            <mxPoint x="140" y="100" as="targetPoint" />
          </mxGeometry>
        </mxCell>
        <mxCell id="QYKZDcX1cYeZKk25ewr2-13" value="clk_i" style="edgeLabel;resizable=0;html=1;;align=center;verticalAlign=middle;" connectable="0" vertex="1" parent="QYKZDcX1cYeZKk25ewr2-12">
          <mxGeometry relative="1" as="geometry" />
        </mxCell>
        <mxCell id="QYKZDcX1cYeZKk25ewr2-14" value="(1)" style="edgeLabel;resizable=0;html=1;;align=left;verticalAlign=bottom;" connectable="0" vertex="1" parent="QYKZDcX1cYeZKk25ewr2-12">
          <mxGeometry x="-1" relative="1" as="geometry">
            <mxPoint as="offset" />
          </mxGeometry>
        </mxCell>
        <mxCell id="QYKZDcX1cYeZKk25ewr2-15" value="" style="endArrow=classic;html=1;rounded=0;" edge="1" parent="1">
          <mxGeometry relative="1" as="geometry">
            <mxPoint x="40" y="130" as="sourcePoint" />
            <mxPoint x="140" y="130" as="targetPoint" />
          </mxGeometry>
        </mxCell>
        <mxCell id="QYKZDcX1cYeZKk25ewr2-16" value="reset_i" style="edgeLabel;resizable=0;html=1;;align=center;verticalAlign=middle;" connectable="0" vertex="1" parent="QYKZDcX1cYeZKk25ewr2-15">
          <mxGeometry relative="1" as="geometry" />
        </mxCell>
        <mxCell id="QYKZDcX1cYeZKk25ewr2-17" value="(1)" style="edgeLabel;resizable=0;html=1;;align=left;verticalAlign=bottom;" connectable="0" vertex="1" parent="QYKZDcX1cYeZKk25ewr2-15">
          <mxGeometry x="-1" relative="1" as="geometry">
            <mxPoint as="offset" />
          </mxGeometry>
        </mxCell>
        <mxCell id="QYKZDcX1cYeZKk25ewr2-18" value="" style="endArrow=classic;html=1;rounded=0;" edge="1" parent="1">
          <mxGeometry relative="1" as="geometry">
            <mxPoint x="40" y="160" as="sourcePoint" />
            <mxPoint x="140" y="160" as="targetPoint" />
          </mxGeometry>
        </mxCell>
        <mxCell id="QYKZDcX1cYeZKk25ewr2-19" value="opcode_i" style="edgeLabel;resizable=0;html=1;;align=center;verticalAlign=middle;" connectable="0" vertex="1" parent="QYKZDcX1cYeZKk25ewr2-18">
          <mxGeometry relative="1" as="geometry" />
        </mxCell>
        <mxCell id="QYKZDcX1cYeZKk25ewr2-20" value="(6)" style="edgeLabel;resizable=0;html=1;;align=left;verticalAlign=bottom;" connectable="0" vertex="1" parent="QYKZDcX1cYeZKk25ewr2-18">
          <mxGeometry x="-1" relative="1" as="geometry">
            <mxPoint as="offset" />
          </mxGeometry>
        </mxCell>
        <mxCell id="QYKZDcX1cYeZKk25ewr2-21" value="" style="endArrow=classic;html=1;rounded=0;" edge="1" parent="1">
          <mxGeometry relative="1" as="geometry">
            <mxPoint x="40" y="190" as="sourcePoint" />
            <mxPoint x="140" y="190" as="targetPoint" />
          </mxGeometry>
        </mxCell>
        <mxCell id="QYKZDcX1cYeZKk25ewr2-22" value="CCR_i" style="edgeLabel;resizable=0;html=1;;align=center;verticalAlign=middle;" connectable="0" vertex="1" parent="QYKZDcX1cYeZKk25ewr2-21">
          <mxGeometry relative="1" as="geometry" />
        </mxCell>
        <mxCell id="QYKZDcX1cYeZKk25ewr2-23" value="(4)" style="edgeLabel;resizable=0;html=1;;align=left;verticalAlign=bottom;" connectable="0" vertex="1" parent="QYKZDcX1cYeZKk25ewr2-21">
          <mxGeometry x="-1" relative="1" as="geometry">
            <mxPoint as="offset" />
          </mxGeometry>
        </mxCell>
        <mxCell id="QYKZDcX1cYeZKk25ewr2-24" value="Sequencer" style="rounded=0;whiteSpace=wrap;html=1;" vertex="1" parent="1">
          <mxGeometry x="140" y="20" width="100" height="250" as="geometry" />
        </mxCell>
        <mxCell id="QYKZDcX1cYeZKk25ewr2-26" value="" style="endArrow=classic;html=1;rounded=0;" edge="1" parent="1">
          <mxGeometry relative="1" as="geometry">
            <mxPoint x="240" y="40" as="sourcePoint" />
            <mxPoint x="340" y="40" as="targetPoint" />
          </mxGeometry>
        </mxCell>
        <mxCell id="QYKZDcX1cYeZKk25ewr2-27" value="PC_inc_o" style="edgeLabel;resizable=0;html=1;;align=center;verticalAlign=middle;" connectable="0" vertex="1" parent="QYKZDcX1cYeZKk25ewr2-26">
          <mxGeometry relative="1" as="geometry" />
        </mxCell>
        <mxCell id="QYKZDcX1cYeZKk25ewr2-28" value="(1)" style="edgeLabel;resizable=0;html=1;;align=left;verticalAlign=bottom;" connectable="0" vertex="1" parent="QYKZDcX1cYeZKk25ewr2-26">
          <mxGeometry x="-1" relative="1" as="geometry">
            <mxPoint as="offset" />
          </mxGeometry>
        </mxCell>
        <mxCell id="QYKZDcX1cYeZKk25ewr2-29" value="" style="endArrow=classic;html=1;rounded=0;" edge="1" parent="1">
          <mxGeometry relative="1" as="geometry">
            <mxPoint x="240" y="70" as="sourcePoint" />
            <mxPoint x="340" y="70" as="targetPoint" />
          </mxGeometry>
        </mxCell>
        <mxCell id="QYKZDcX1cYeZKk25ewr2-30" value="PC_load_o" style="edgeLabel;resizable=0;html=1;;align=center;verticalAlign=middle;" connectable="0" vertex="1" parent="QYKZDcX1cYeZKk25ewr2-29">
          <mxGeometry relative="1" as="geometry" />
        </mxCell>
        <mxCell id="QYKZDcX1cYeZKk25ewr2-31" value="(1)" style="edgeLabel;resizable=0;html=1;;align=left;verticalAlign=bottom;" connectable="0" vertex="1" parent="QYKZDcX1cYeZKk25ewr2-29">
          <mxGeometry x="-1" relative="1" as="geometry">
            <mxPoint as="offset" />
          </mxGeometry>
        </mxCell>
        <mxCell id="QYKZDcX1cYeZKk25ewr2-32" value="" style="endArrow=classic;html=1;rounded=0;" edge="1" parent="1">
          <mxGeometry relative="1" as="geometry">
            <mxPoint x="240" y="100" as="sourcePoint" />
            <mxPoint x="340" y="100" as="targetPoint" />
          </mxGeometry>
        </mxCell>
        <mxCell id="QYKZDcX1cYeZKk25ewr2-33" value="IR_load_o" style="edgeLabel;resizable=0;html=1;;align=center;verticalAlign=middle;" connectable="0" vertex="1" parent="QYKZDcX1cYeZKk25ewr2-32">
          <mxGeometry relative="1" as="geometry" />
        </mxCell>
        <mxCell id="QYKZDcX1cYeZKk25ewr2-34" value="(1)" style="edgeLabel;resizable=0;html=1;;align=left;verticalAlign=bottom;" connectable="0" vertex="1" parent="QYKZDcX1cYeZKk25ewr2-32">
          <mxGeometry x="-1" relative="1" as="geometry">
            <mxPoint as="offset" />
          </mxGeometry>
        </mxCell>
        <mxCell id="QYKZDcX1cYeZKk25ewr2-35" value="" style="endArrow=classic;html=1;rounded=0;" edge="1" parent="1">
          <mxGeometry relative="1" as="geometry">
            <mxPoint x="240" y="130" as="sourcePoint" />
            <mxPoint x="340" y="130" as="targetPoint" />
          </mxGeometry>
        </mxCell>
        <mxCell id="QYKZDcX1cYeZKk25ewr2-36" value="oper_sel_o" style="edgeLabel;resizable=0;html=1;;align=center;verticalAlign=middle;" connectable="0" vertex="1" parent="QYKZDcX1cYeZKk25ewr2-35">
          <mxGeometry relative="1" as="geometry" />
        </mxCell>
        <mxCell id="QYKZDcX1cYeZKk25ewr2-37" value="(3)" style="edgeLabel;resizable=0;html=1;;align=left;verticalAlign=bottom;" connectable="0" vertex="1" parent="QYKZDcX1cYeZKk25ewr2-35">
          <mxGeometry x="-1" relative="1" as="geometry">
            <mxPoint as="offset" />
          </mxGeometry>
        </mxCell>
        <mxCell id="QYKZDcX1cYeZKk25ewr2-38" value="" style="endArrow=classic;html=1;rounded=0;" edge="1" parent="1">
          <mxGeometry relative="1" as="geometry">
            <mxPoint x="240" y="160" as="sourcePoint" />
            <mxPoint x="340" y="160" as="targetPoint" />
          </mxGeometry>
        </mxCell>
        <mxCell id="QYKZDcX1cYeZKk25ewr2-39" value="oper_load_o" style="edgeLabel;resizable=0;html=1;;align=center;verticalAlign=middle;" connectable="0" vertex="1" parent="QYKZDcX1cYeZKk25ewr2-38">
          <mxGeometry relative="1" as="geometry" />
        </mxCell>
        <mxCell id="QYKZDcX1cYeZKk25ewr2-40" value="(1)" style="edgeLabel;resizable=0;html=1;;align=left;verticalAlign=bottom;" connectable="0" vertex="1" parent="QYKZDcX1cYeZKk25ewr2-38">
          <mxGeometry x="-1" relative="1" as="geometry">
            <mxPoint as="offset" />
          </mxGeometry>
        </mxCell>
        <mxCell id="QYKZDcX1cYeZKk25ewr2-41" value="" style="endArrow=classic;html=1;rounded=0;" edge="1" parent="1">
          <mxGeometry relative="1" as="geometry">
            <mxPoint x="240" y="190" as="sourcePoint" />
            <mxPoint x="340" y="190" as="targetPoint" />
          </mxGeometry>
        </mxCell>
        <mxCell id="QYKZDcX1cYeZKk25ewr2-42" value="Accu_load_o" style="edgeLabel;resizable=0;html=1;;align=center;verticalAlign=middle;" connectable="0" vertex="1" parent="QYKZDcX1cYeZKk25ewr2-41">
          <mxGeometry relative="1" as="geometry" />
        </mxCell>
        <mxCell id="QYKZDcX1cYeZKk25ewr2-43" value="(1)" style="edgeLabel;resizable=0;html=1;;align=left;verticalAlign=bottom;" connectable="0" vertex="1" parent="QYKZDcX1cYeZKk25ewr2-41">
          <mxGeometry x="-1" relative="1" as="geometry">
            <mxPoint as="offset" />
          </mxGeometry>
        </mxCell>
        <mxCell id="QYKZDcX1cYeZKk25ewr2-44" value="" style="endArrow=classic;html=1;rounded=0;" edge="1" parent="1">
          <mxGeometry relative="1" as="geometry">
            <mxPoint x="240" y="220" as="sourcePoint" />
            <mxPoint x="340" y="220" as="targetPoint" />
          </mxGeometry>
        </mxCell>
        <mxCell id="QYKZDcX1cYeZKk25ewr2-45" value="CCR_load_o" style="edgeLabel;resizable=0;html=1;;align=center;verticalAlign=middle;" connectable="0" vertex="1" parent="QYKZDcX1cYeZKk25ewr2-44">
          <mxGeometry relative="1" as="geometry" />
        </mxCell>
        <mxCell id="QYKZDcX1cYeZKk25ewr2-46" value="(1)" style="edgeLabel;resizable=0;html=1;;align=left;verticalAlign=bottom;" connectable="0" vertex="1" parent="QYKZDcX1cYeZKk25ewr2-44">
          <mxGeometry x="-1" relative="1" as="geometry">
            <mxPoint as="offset" />
          </mxGeometry>
        </mxCell>
        <mxCell id="QYKZDcX1cYeZKk25ewr2-47" value="" style="endArrow=classic;html=1;rounded=0;" edge="1" parent="1">
          <mxGeometry relative="1" as="geometry">
            <mxPoint x="240" y="250" as="sourcePoint" />
            <mxPoint x="340" y="250" as="targetPoint" />
          </mxGeometry>
        </mxCell>
        <mxCell id="QYKZDcX1cYeZKk25ewr2-48" value="data_wr_o" style="edgeLabel;resizable=0;html=1;;align=center;verticalAlign=middle;" connectable="0" vertex="1" parent="QYKZDcX1cYeZKk25ewr2-47">
          <mxGeometry relative="1" as="geometry" />
        </mxCell>
        <mxCell id="QYKZDcX1cYeZKk25ewr2-49" value="(1)" style="edgeLabel;resizable=0;html=1;;align=left;verticalAlign=bottom;" connectable="0" vertex="1" parent="QYKZDcX1cYeZKk25ewr2-47">
          <mxGeometry x="-1" relative="1" as="geometry">
            <mxPoint as="offset" />
          </mxGeometry>
        </mxCell>
        <mxCell id="QYKZDcX1cYeZKk25ewr2-52" value="" style="endArrow=classic;html=1;rounded=0;" edge="1" parent="1">
          <mxGeometry relative="1" as="geometry">
            <mxPoint x="40" y="320" as="sourcePoint" />
            <mxPoint x="140" y="320" as="targetPoint" />
          </mxGeometry>
        </mxCell>
        <mxCell id="QYKZDcX1cYeZKk25ewr2-53" value="clk_i" style="edgeLabel;resizable=0;html=1;;align=center;verticalAlign=middle;" connectable="0" vertex="1" parent="QYKZDcX1cYeZKk25ewr2-52">
          <mxGeometry relative="1" as="geometry" />
        </mxCell>
        <mxCell id="QYKZDcX1cYeZKk25ewr2-54" value="(1)" style="edgeLabel;resizable=0;html=1;;align=left;verticalAlign=bottom;" connectable="0" vertex="1" parent="QYKZDcX1cYeZKk25ewr2-52">
          <mxGeometry x="-1" relative="1" as="geometry">
            <mxPoint as="offset" />
          </mxGeometry>
        </mxCell>
        <mxCell id="QYKZDcX1cYeZKk25ewr2-55" value="" style="endArrow=classic;html=1;rounded=0;" edge="1" parent="1">
          <mxGeometry relative="1" as="geometry">
            <mxPoint x="40" y="350" as="sourcePoint" />
            <mxPoint x="140" y="350" as="targetPoint" />
          </mxGeometry>
        </mxCell>
        <mxCell id="QYKZDcX1cYeZKk25ewr2-56" value="reset_i" style="edgeLabel;resizable=0;html=1;;align=center;verticalAlign=middle;" connectable="0" vertex="1" parent="QYKZDcX1cYeZKk25ewr2-55">
          <mxGeometry relative="1" as="geometry" />
        </mxCell>
        <mxCell id="QYKZDcX1cYeZKk25ewr2-57" value="(1)" style="edgeLabel;resizable=0;html=1;;align=left;verticalAlign=bottom;" connectable="0" vertex="1" parent="QYKZDcX1cYeZKk25ewr2-55">
          <mxGeometry x="-1" relative="1" as="geometry">
            <mxPoint as="offset" />
          </mxGeometry>
        </mxCell>
        <mxCell id="QYKZDcX1cYeZKk25ewr2-58" value="" style="endArrow=classic;html=1;rounded=0;" edge="1" parent="1">
          <mxGeometry relative="1" as="geometry">
            <mxPoint x="40" y="380" as="sourcePoint" />
            <mxPoint x="140" y="380" as="targetPoint" />
          </mxGeometry>
        </mxCell>
        <mxCell id="QYKZDcX1cYeZKk25ewr2-59" value="CCR_load_i" style="edgeLabel;resizable=0;html=1;;align=center;verticalAlign=middle;" connectable="0" vertex="1" parent="QYKZDcX1cYeZKk25ewr2-58">
          <mxGeometry relative="1" as="geometry" />
        </mxCell>
        <mxCell id="QYKZDcX1cYeZKk25ewr2-60" value="(1)" style="edgeLabel;resizable=0;html=1;;align=left;verticalAlign=bottom;" connectable="0" vertex="1" parent="QYKZDcX1cYeZKk25ewr2-58">
          <mxGeometry x="-1" relative="1" as="geometry">
            <mxPoint as="offset" />
          </mxGeometry>
        </mxCell>
        <mxCell id="QYKZDcX1cYeZKk25ewr2-61" value="" style="endArrow=classic;html=1;rounded=0;" edge="1" parent="1">
          <mxGeometry relative="1" as="geometry">
            <mxPoint x="40" y="410" as="sourcePoint" />
            <mxPoint x="140" y="410" as="targetPoint" />
          </mxGeometry>
        </mxCell>
        <mxCell id="QYKZDcX1cYeZKk25ewr2-62" value="CCR_i" style="edgeLabel;resizable=0;html=1;;align=center;verticalAlign=middle;" connectable="0" vertex="1" parent="QYKZDcX1cYeZKk25ewr2-61">
          <mxGeometry relative="1" as="geometry" />
        </mxCell>
        <mxCell id="QYKZDcX1cYeZKk25ewr2-63" value="(4)" style="edgeLabel;resizable=0;html=1;;align=left;verticalAlign=bottom;" connectable="0" vertex="1" parent="QYKZDcX1cYeZKk25ewr2-61">
          <mxGeometry x="-1" relative="1" as="geometry">
            <mxPoint as="offset" />
          </mxGeometry>
        </mxCell>
        <mxCell id="QYKZDcX1cYeZKk25ewr2-64" value="" style="endArrow=classic;html=1;rounded=0;" edge="1" parent="1">
          <mxGeometry relative="1" as="geometry">
            <mxPoint x="250" y="380" as="sourcePoint" />
            <mxPoint x="350" y="380" as="targetPoint" />
          </mxGeometry>
        </mxCell>
        <mxCell id="QYKZDcX1cYeZKk25ewr2-65" value="CCR_o" style="edgeLabel;resizable=0;html=1;;align=center;verticalAlign=middle;" connectable="0" vertex="1" parent="QYKZDcX1cYeZKk25ewr2-64">
          <mxGeometry relative="1" as="geometry" />
        </mxCell>
        <mxCell id="QYKZDcX1cYeZKk25ewr2-66" value="(4)" style="edgeLabel;resizable=0;html=1;;align=left;verticalAlign=bottom;" connectable="0" vertex="1" parent="QYKZDcX1cYeZKk25ewr2-64">
          <mxGeometry x="-1" relative="1" as="geometry">
            <mxPoint as="offset" />
          </mxGeometry>
        </mxCell>
        <mxCell id="QYKZDcX1cYeZKk25ewr2-68" value="Status_Register" style="whiteSpace=wrap;html=1;" vertex="1" parent="1">
          <mxGeometry x="140" y="300" width="110" height="130" as="geometry" />
        </mxCell>
        <mxCell id="QYKZDcX1cYeZKk25ewr2-69" value="" style="endArrow=classic;html=1;rounded=0;" edge="1" parent="1">
          <mxGeometry relative="1" as="geometry">
            <mxPoint x="40" y="480" as="sourcePoint" />
            <mxPoint x="140" y="480" as="targetPoint" />
          </mxGeometry>
        </mxCell>
        <mxCell id="QYKZDcX1cYeZKk25ewr2-70" value="opcode_i" style="edgeLabel;resizable=0;html=1;;align=center;verticalAlign=middle;" connectable="0" vertex="1" parent="QYKZDcX1cYeZKk25ewr2-69">
          <mxGeometry relative="1" as="geometry" />
        </mxCell>
        <mxCell id="QYKZDcX1cYeZKk25ewr2-71" value="(6)" style="edgeLabel;resizable=0;html=1;;align=left;verticalAlign=bottom;" connectable="0" vertex="1" parent="QYKZDcX1cYeZKk25ewr2-69">
          <mxGeometry x="-1" relative="1" as="geometry">
            <mxPoint as="offset" />
          </mxGeometry>
        </mxCell>
        <mxCell id="QYKZDcX1cYeZKk25ewr2-72" value="" style="endArrow=classic;html=1;rounded=0;" edge="1" parent="1">
          <mxGeometry relative="1" as="geometry">
            <mxPoint x="40" y="510" as="sourcePoint" />
            <mxPoint x="140" y="510" as="targetPoint" />
          </mxGeometry>
        </mxCell>
        <mxCell id="QYKZDcX1cYeZKk25ewr2-73" value="operande1_i" style="edgeLabel;resizable=0;html=1;;align=center;verticalAlign=middle;" connectable="0" vertex="1" parent="QYKZDcX1cYeZKk25ewr2-72">
          <mxGeometry relative="1" as="geometry" />
        </mxCell>
        <mxCell id="QYKZDcX1cYeZKk25ewr2-74" value="(8)" style="edgeLabel;resizable=0;html=1;;align=left;verticalAlign=bottom;" connectable="0" vertex="1" parent="QYKZDcX1cYeZKk25ewr2-72">
          <mxGeometry x="-1" relative="1" as="geometry">
            <mxPoint as="offset" />
          </mxGeometry>
        </mxCell>
        <mxCell id="QYKZDcX1cYeZKk25ewr2-75" value="" style="endArrow=classic;html=1;rounded=0;" edge="1" parent="1">
          <mxGeometry relative="1" as="geometry">
            <mxPoint x="40" y="540" as="sourcePoint" />
            <mxPoint x="140" y="540" as="targetPoint" />
          </mxGeometry>
        </mxCell>
        <mxCell id="QYKZDcX1cYeZKk25ewr2-76" value="operande2_i" style="edgeLabel;resizable=0;html=1;;align=center;verticalAlign=middle;" connectable="0" vertex="1" parent="QYKZDcX1cYeZKk25ewr2-75">
          <mxGeometry relative="1" as="geometry" />
        </mxCell>
        <mxCell id="QYKZDcX1cYeZKk25ewr2-77" value="(8)" style="edgeLabel;resizable=0;html=1;;align=left;verticalAlign=bottom;" connectable="0" vertex="1" parent="QYKZDcX1cYeZKk25ewr2-75">
          <mxGeometry x="-1" relative="1" as="geometry">
            <mxPoint as="offset" />
          </mxGeometry>
        </mxCell>
        <mxCell id="QYKZDcX1cYeZKk25ewr2-78" value="" style="endArrow=classic;html=1;rounded=0;" edge="1" parent="1">
          <mxGeometry relative="1" as="geometry">
            <mxPoint x="40" y="570" as="sourcePoint" />
            <mxPoint x="140" y="570" as="targetPoint" />
          </mxGeometry>
        </mxCell>
        <mxCell id="QYKZDcX1cYeZKk25ewr2-79" value="CCR_i" style="edgeLabel;resizable=0;html=1;;align=center;verticalAlign=middle;" connectable="0" vertex="1" parent="QYKZDcX1cYeZKk25ewr2-78">
          <mxGeometry relative="1" as="geometry" />
        </mxCell>
        <mxCell id="QYKZDcX1cYeZKk25ewr2-80" value="(4)" style="edgeLabel;resizable=0;html=1;;align=left;verticalAlign=bottom;" connectable="0" vertex="1" parent="QYKZDcX1cYeZKk25ewr2-78">
          <mxGeometry x="-1" relative="1" as="geometry">
            <mxPoint as="offset" />
          </mxGeometry>
        </mxCell>
        <mxCell id="QYKZDcX1cYeZKk25ewr2-81" value="ALU" style="whiteSpace=wrap;html=1;" vertex="1" parent="1">
          <mxGeometry x="140" y="460" width="90" height="130" as="geometry" />
        </mxCell>
        <mxCell id="QYKZDcX1cYeZKk25ewr2-82" value="" style="endArrow=classic;html=1;rounded=0;" edge="1" parent="1">
          <mxGeometry relative="1" as="geometry">
            <mxPoint x="230" y="510" as="sourcePoint" />
            <mxPoint x="330" y="510" as="targetPoint" />
          </mxGeometry>
        </mxCell>
        <mxCell id="QYKZDcX1cYeZKk25ewr2-83" value="ALU_o" style="edgeLabel;resizable=0;html=1;;align=center;verticalAlign=middle;" connectable="0" vertex="1" parent="QYKZDcX1cYeZKk25ewr2-82">
          <mxGeometry relative="1" as="geometry" />
        </mxCell>
        <mxCell id="QYKZDcX1cYeZKk25ewr2-84" value="(8)" style="edgeLabel;resizable=0;html=1;;align=left;verticalAlign=bottom;" connectable="0" vertex="1" parent="QYKZDcX1cYeZKk25ewr2-82">
          <mxGeometry x="-1" relative="1" as="geometry">
            <mxPoint as="offset" />
          </mxGeometry>
        </mxCell>
        <mxCell id="QYKZDcX1cYeZKk25ewr2-85" value="" style="endArrow=classic;html=1;rounded=0;" edge="1" parent="1">
          <mxGeometry relative="1" as="geometry">
            <mxPoint x="230" y="540" as="sourcePoint" />
            <mxPoint x="330" y="540" as="targetPoint" />
          </mxGeometry>
        </mxCell>
        <mxCell id="QYKZDcX1cYeZKk25ewr2-86" value="Z_C_V_N" style="edgeLabel;resizable=0;html=1;;align=center;verticalAlign=middle;" connectable="0" vertex="1" parent="QYKZDcX1cYeZKk25ewr2-85">
          <mxGeometry relative="1" as="geometry" />
        </mxCell>
        <mxCell id="QYKZDcX1cYeZKk25ewr2-87" value="(4)" style="edgeLabel;resizable=0;html=1;;align=left;verticalAlign=bottom;" connectable="0" vertex="1" parent="QYKZDcX1cYeZKk25ewr2-85">
          <mxGeometry x="-1" relative="1" as="geometry">
            <mxPoint as="offset" />
          </mxGeometry>
        </mxCell>
        <mxCell id="QYKZDcX1cYeZKk25ewr2-88" value="" style="endArrow=classic;html=1;rounded=0;" edge="1" parent="1">
          <mxGeometry relative="1" as="geometry">
            <mxPoint x="260" y="640" as="sourcePoint" />
            <mxPoint x="360" y="640" as="targetPoint" />
          </mxGeometry>
        </mxCell>
        <mxCell id="QYKZDcX1cYeZKk25ewr2-89" value="cs_port_a_o" style="edgeLabel;resizable=0;html=1;;align=center;verticalAlign=middle;" connectable="0" vertex="1" parent="QYKZDcX1cYeZKk25ewr2-88">
          <mxGeometry relative="1" as="geometry" />
        </mxCell>
        <mxCell id="QYKZDcX1cYeZKk25ewr2-90" value="(1)" style="edgeLabel;resizable=0;html=1;;align=left;verticalAlign=bottom;" connectable="0" vertex="1" parent="QYKZDcX1cYeZKk25ewr2-88">
          <mxGeometry x="-1" relative="1" as="geometry">
            <mxPoint as="offset" />
          </mxGeometry>
        </mxCell>
        <mxCell id="QYKZDcX1cYeZKk25ewr2-91" value="" style="endArrow=classic;html=1;rounded=0;" edge="1" parent="1">
          <mxGeometry relative="1" as="geometry">
            <mxPoint x="260" y="670" as="sourcePoint" />
            <mxPoint x="360" y="670" as="targetPoint" />
          </mxGeometry>
        </mxCell>
        <mxCell id="QYKZDcX1cYeZKk25ewr2-92" value="cs_port_b_o" style="edgeLabel;resizable=0;html=1;;align=center;verticalAlign=middle;" connectable="0" vertex="1" parent="QYKZDcX1cYeZKk25ewr2-91">
          <mxGeometry relative="1" as="geometry" />
        </mxCell>
        <mxCell id="QYKZDcX1cYeZKk25ewr2-93" value="(1)" style="edgeLabel;resizable=0;html=1;;align=left;verticalAlign=bottom;" connectable="0" vertex="1" parent="QYKZDcX1cYeZKk25ewr2-91">
          <mxGeometry x="-1" relative="1" as="geometry">
            <mxPoint as="offset" />
          </mxGeometry>
        </mxCell>
        <mxCell id="QYKZDcX1cYeZKk25ewr2-94" value="" style="endArrow=classic;html=1;rounded=0;" edge="1" parent="1">
          <mxGeometry relative="1" as="geometry">
            <mxPoint x="260" y="700" as="sourcePoint" />
            <mxPoint x="360" y="700" as="targetPoint" />
          </mxGeometry>
        </mxCell>
        <mxCell id="QYKZDcX1cYeZKk25ewr2-95" value="cs_ram_o" style="edgeLabel;resizable=0;html=1;;align=center;verticalAlign=middle;" connectable="0" vertex="1" parent="QYKZDcX1cYeZKk25ewr2-94">
          <mxGeometry relative="1" as="geometry" />
        </mxCell>
        <mxCell id="QYKZDcX1cYeZKk25ewr2-96" value="(1)" style="edgeLabel;resizable=0;html=1;;align=left;verticalAlign=bottom;" connectable="0" vertex="1" parent="QYKZDcX1cYeZKk25ewr2-94">
          <mxGeometry x="-1" relative="1" as="geometry">
            <mxPoint as="offset" />
          </mxGeometry>
        </mxCell>
        <mxCell id="QYKZDcX1cYeZKk25ewr2-100" value="Address_Decode" style="whiteSpace=wrap;html=1;" vertex="1" parent="1">
          <mxGeometry x="140" y="620" width="120" height="100" as="geometry" />
        </mxCell>
        <mxCell id="QYKZDcX1cYeZKk25ewr2-101" value="" style="endArrow=classic;html=1;rounded=0;" edge="1" parent="1">
          <mxGeometry relative="1" as="geometry">
            <mxPoint x="40" y="670" as="sourcePoint" />
            <mxPoint x="140" y="670" as="targetPoint" />
          </mxGeometry>
        </mxCell>
        <mxCell id="QYKZDcX1cYeZKk25ewr2-102" value="addr_i" style="edgeLabel;resizable=0;html=1;;align=center;verticalAlign=middle;" connectable="0" vertex="1" parent="QYKZDcX1cYeZKk25ewr2-101">
          <mxGeometry relative="1" as="geometry" />
        </mxCell>
        <mxCell id="QYKZDcX1cYeZKk25ewr2-103" value="(8)" style="edgeLabel;resizable=0;html=1;;align=left;verticalAlign=bottom;" connectable="0" vertex="1" parent="QYKZDcX1cYeZKk25ewr2-101">
          <mxGeometry x="-1" relative="1" as="geometry">
            <mxPoint as="offset" />
          </mxGeometry>
        </mxCell>
        <mxCell id="QYKZDcX1cYeZKk25ewr2-108" value="" style="endArrow=classic;html=1;rounded=0;" edge="1" parent="1">
          <mxGeometry relative="1" as="geometry">
            <mxPoint x="260" y="830" as="sourcePoint" />
            <mxPoint x="360" y="830" as="targetPoint" />
          </mxGeometry>
        </mxCell>
        <mxCell id="QYKZDcX1cYeZKk25ewr2-109" value="data_o" style="edgeLabel;resizable=0;html=1;;align=center;verticalAlign=middle;" connectable="0" vertex="1" parent="QYKZDcX1cYeZKk25ewr2-108">
          <mxGeometry relative="1" as="geometry" />
        </mxCell>
        <mxCell id="QYKZDcX1cYeZKk25ewr2-110" value="(8)" style="edgeLabel;resizable=0;html=1;;align=left;verticalAlign=bottom;" connectable="0" vertex="1" parent="QYKZDcX1cYeZKk25ewr2-108">
          <mxGeometry x="-1" relative="1" as="geometry">
            <mxPoint as="offset" />
          </mxGeometry>
        </mxCell>
        <mxCell id="QYKZDcX1cYeZKk25ewr2-120" value="Data_Multiplexer" style="rounded=0;whiteSpace=wrap;html=1;" vertex="1" parent="1">
          <mxGeometry x="140" y="750" width="120" height="190" as="geometry" />
        </mxCell>
        <mxCell id="QYKZDcX1cYeZKk25ewr2-121" value="" style="endArrow=classic;html=1;rounded=0;" edge="1" parent="1">
          <mxGeometry relative="1" as="geometry">
            <mxPoint x="40" y="770" as="sourcePoint" />
            <mxPoint x="140" y="770" as="targetPoint" />
          </mxGeometry>
        </mxCell>
        <mxCell id="QYKZDcX1cYeZKk25ewr2-122" value="RAM_data_i" style="edgeLabel;resizable=0;html=1;;align=center;verticalAlign=middle;" connectable="0" vertex="1" parent="QYKZDcX1cYeZKk25ewr2-121">
          <mxGeometry relative="1" as="geometry" />
        </mxCell>
        <mxCell id="QYKZDcX1cYeZKk25ewr2-123" value="(8)" style="edgeLabel;resizable=0;html=1;;align=left;verticalAlign=bottom;" connectable="0" vertex="1" parent="QYKZDcX1cYeZKk25ewr2-121">
          <mxGeometry x="-1" relative="1" as="geometry">
            <mxPoint as="offset" />
          </mxGeometry>
        </mxCell>
        <mxCell id="QYKZDcX1cYeZKk25ewr2-124" value="" style="endArrow=classic;html=1;rounded=0;" edge="1" parent="1">
          <mxGeometry relative="1" as="geometry">
            <mxPoint x="40" y="800" as="sourcePoint" />
            <mxPoint x="140" y="800" as="targetPoint" />
          </mxGeometry>
        </mxCell>
        <mxCell id="QYKZDcX1cYeZKk25ewr2-125" value="port_a_data_i" style="edgeLabel;resizable=0;html=1;;align=center;verticalAlign=middle;" connectable="0" vertex="1" parent="QYKZDcX1cYeZKk25ewr2-124">
          <mxGeometry relative="1" as="geometry" />
        </mxCell>
        <mxCell id="QYKZDcX1cYeZKk25ewr2-126" value="(8)" style="edgeLabel;resizable=0;html=1;;align=left;verticalAlign=bottom;" connectable="0" vertex="1" parent="QYKZDcX1cYeZKk25ewr2-124">
          <mxGeometry x="-1" relative="1" as="geometry">
            <mxPoint as="offset" />
          </mxGeometry>
        </mxCell>
        <mxCell id="QYKZDcX1cYeZKk25ewr2-127" value="" style="endArrow=classic;html=1;rounded=0;" edge="1" parent="1">
          <mxGeometry relative="1" as="geometry">
            <mxPoint x="40" y="830" as="sourcePoint" />
            <mxPoint x="140" y="830" as="targetPoint" />
          </mxGeometry>
        </mxCell>
        <mxCell id="QYKZDcX1cYeZKk25ewr2-128" value="port_b_data_i" style="edgeLabel;resizable=0;html=1;;align=center;verticalAlign=middle;" connectable="0" vertex="1" parent="QYKZDcX1cYeZKk25ewr2-127">
          <mxGeometry relative="1" as="geometry" />
        </mxCell>
        <mxCell id="QYKZDcX1cYeZKk25ewr2-129" value="(8)" style="edgeLabel;resizable=0;html=1;;align=left;verticalAlign=bottom;" connectable="0" vertex="1" parent="QYKZDcX1cYeZKk25ewr2-127">
          <mxGeometry x="-1" relative="1" as="geometry">
            <mxPoint as="offset" />
          </mxGeometry>
        </mxCell>
        <mxCell id="QYKZDcX1cYeZKk25ewr2-130" value="" style="endArrow=classic;html=1;rounded=0;" edge="1" parent="1">
          <mxGeometry relative="1" as="geometry">
            <mxPoint x="40" y="860" as="sourcePoint" />
            <mxPoint x="140" y="860" as="targetPoint" />
          </mxGeometry>
        </mxCell>
        <mxCell id="QYKZDcX1cYeZKk25ewr2-131" value="cs_ram_i" style="edgeLabel;resizable=0;html=1;;align=center;verticalAlign=middle;" connectable="0" vertex="1" parent="QYKZDcX1cYeZKk25ewr2-130">
          <mxGeometry relative="1" as="geometry" />
        </mxCell>
        <mxCell id="QYKZDcX1cYeZKk25ewr2-132" value="(1)" style="edgeLabel;resizable=0;html=1;;align=left;verticalAlign=bottom;" connectable="0" vertex="1" parent="QYKZDcX1cYeZKk25ewr2-130">
          <mxGeometry x="-1" relative="1" as="geometry">
            <mxPoint as="offset" />
          </mxGeometry>
        </mxCell>
        <mxCell id="QYKZDcX1cYeZKk25ewr2-133" value="" style="endArrow=classic;html=1;rounded=0;" edge="1" parent="1">
          <mxGeometry relative="1" as="geometry">
            <mxPoint x="40" y="890" as="sourcePoint" />
            <mxPoint x="140" y="890" as="targetPoint" />
          </mxGeometry>
        </mxCell>
        <mxCell id="QYKZDcX1cYeZKk25ewr2-134" value="cs_port_a_i" style="edgeLabel;resizable=0;html=1;;align=center;verticalAlign=middle;" connectable="0" vertex="1" parent="QYKZDcX1cYeZKk25ewr2-133">
          <mxGeometry relative="1" as="geometry" />
        </mxCell>
        <mxCell id="QYKZDcX1cYeZKk25ewr2-135" value="(1)" style="edgeLabel;resizable=0;html=1;;align=left;verticalAlign=bottom;" connectable="0" vertex="1" parent="QYKZDcX1cYeZKk25ewr2-133">
          <mxGeometry x="-1" relative="1" as="geometry">
            <mxPoint as="offset" />
          </mxGeometry>
        </mxCell>
        <mxCell id="QYKZDcX1cYeZKk25ewr2-136" value="" style="endArrow=classic;html=1;rounded=0;" edge="1" parent="1">
          <mxGeometry relative="1" as="geometry">
            <mxPoint x="40" y="920" as="sourcePoint" />
            <mxPoint x="140" y="920" as="targetPoint" />
          </mxGeometry>
        </mxCell>
        <mxCell id="QYKZDcX1cYeZKk25ewr2-137" value="cs_port_b_i" style="edgeLabel;resizable=0;html=1;;align=center;verticalAlign=middle;" connectable="0" vertex="1" parent="QYKZDcX1cYeZKk25ewr2-136">
          <mxGeometry relative="1" as="geometry" />
        </mxCell>
        <mxCell id="QYKZDcX1cYeZKk25ewr2-138" value="(1)" style="edgeLabel;resizable=0;html=1;;align=left;verticalAlign=bottom;" connectable="0" vertex="1" parent="QYKZDcX1cYeZKk25ewr2-136">
          <mxGeometry x="-1" relative="1" as="geometry">
            <mxPoint as="offset" />
          </mxGeometry>
        </mxCell>
        <mxCell id="QYKZDcX1cYeZKk25ewr2-145" value="" style="endArrow=classic;html=1;rounded=0;" edge="1" parent="1">
          <mxGeometry relative="1" as="geometry">
            <mxPoint x="40" y="990" as="sourcePoint" />
            <mxPoint x="140" y="990" as="targetPoint" />
          </mxGeometry>
        </mxCell>
        <mxCell id="QYKZDcX1cYeZKk25ewr2-146" value="clk_i" style="edgeLabel;resizable=0;html=1;;align=center;verticalAlign=middle;" connectable="0" vertex="1" parent="QYKZDcX1cYeZKk25ewr2-145">
          <mxGeometry relative="1" as="geometry" />
        </mxCell>
        <mxCell id="QYKZDcX1cYeZKk25ewr2-147" value="(1)" style="edgeLabel;resizable=0;html=1;;align=left;verticalAlign=bottom;" connectable="0" vertex="1" parent="QYKZDcX1cYeZKk25ewr2-145">
          <mxGeometry x="-1" relative="1" as="geometry">
            <mxPoint as="offset" />
          </mxGeometry>
        </mxCell>
        <mxCell id="QYKZDcX1cYeZKk25ewr2-148" value="" style="endArrow=classic;html=1;rounded=0;" edge="1" parent="1">
          <mxGeometry relative="1" as="geometry">
            <mxPoint x="40" y="1020" as="sourcePoint" />
            <mxPoint x="140" y="1020" as="targetPoint" />
          </mxGeometry>
        </mxCell>
        <mxCell id="QYKZDcX1cYeZKk25ewr2-149" value="reset_i" style="edgeLabel;resizable=0;html=1;;align=center;verticalAlign=middle;" connectable="0" vertex="1" parent="QYKZDcX1cYeZKk25ewr2-148">
          <mxGeometry relative="1" as="geometry" />
        </mxCell>
        <mxCell id="QYKZDcX1cYeZKk25ewr2-150" value="(1)" style="edgeLabel;resizable=0;html=1;;align=left;verticalAlign=bottom;" connectable="0" vertex="1" parent="QYKZDcX1cYeZKk25ewr2-148">
          <mxGeometry x="-1" relative="1" as="geometry">
            <mxPoint as="offset" />
          </mxGeometry>
        </mxCell>
        <mxCell id="QYKZDcX1cYeZKk25ewr2-151" value="" style="endArrow=classic;html=1;rounded=0;" edge="1" parent="1">
          <mxGeometry relative="1" as="geometry">
            <mxPoint x="40" y="1050" as="sourcePoint" />
            <mxPoint x="140" y="1050" as="targetPoint" />
          </mxGeometry>
        </mxCell>
        <mxCell id="QYKZDcX1cYeZKk25ewr2-152" value="IR_load_i" style="edgeLabel;resizable=0;html=1;;align=center;verticalAlign=middle;" connectable="0" vertex="1" parent="QYKZDcX1cYeZKk25ewr2-151">
          <mxGeometry relative="1" as="geometry" />
        </mxCell>
        <mxCell id="QYKZDcX1cYeZKk25ewr2-153" value="(14)" style="edgeLabel;resizable=0;html=1;;align=left;verticalAlign=bottom;" connectable="0" vertex="1" parent="QYKZDcX1cYeZKk25ewr2-151">
          <mxGeometry x="-1" relative="1" as="geometry">
            <mxPoint as="offset" />
          </mxGeometry>
        </mxCell>
        <mxCell id="QYKZDcX1cYeZKk25ewr2-154" value="" style="endArrow=classic;html=1;rounded=0;" edge="1" parent="1">
          <mxGeometry relative="1" as="geometry">
            <mxPoint x="40" y="1080" as="sourcePoint" />
            <mxPoint x="140" y="1080" as="targetPoint" />
          </mxGeometry>
        </mxCell>
        <mxCell id="QYKZDcX1cYeZKk25ewr2-155" value="IR_i" style="edgeLabel;resizable=0;html=1;;align=center;verticalAlign=middle;" connectable="0" vertex="1" parent="QYKZDcX1cYeZKk25ewr2-154">
          <mxGeometry relative="1" as="geometry" />
        </mxCell>
        <mxCell id="QYKZDcX1cYeZKk25ewr2-156" value="(8)" style="edgeLabel;resizable=0;html=1;;align=left;verticalAlign=bottom;" connectable="0" vertex="1" parent="QYKZDcX1cYeZKk25ewr2-154">
          <mxGeometry x="-1" relative="1" as="geometry">
            <mxPoint as="offset" />
          </mxGeometry>
        </mxCell>
        <mxCell id="QYKZDcX1cYeZKk25ewr2-157" value="Instruction_Register" style="whiteSpace=wrap;html=1;" vertex="1" parent="1">
          <mxGeometry x="140" y="970" width="130" height="130" as="geometry" />
        </mxCell>
        <mxCell id="QYKZDcX1cYeZKk25ewr2-158" value="" style="endArrow=classic;html=1;rounded=0;" edge="1" parent="1">
          <mxGeometry relative="1" as="geometry">
            <mxPoint x="270" y="1020" as="sourcePoint" />
            <mxPoint x="370" y="1020" as="targetPoint" />
          </mxGeometry>
        </mxCell>
        <mxCell id="QYKZDcX1cYeZKk25ewr2-159" value="operande_o" style="edgeLabel;resizable=0;html=1;;align=center;verticalAlign=middle;" connectable="0" vertex="1" parent="QYKZDcX1cYeZKk25ewr2-158">
          <mxGeometry relative="1" as="geometry" />
        </mxCell>
        <mxCell id="QYKZDcX1cYeZKk25ewr2-160" value="(8)" style="edgeLabel;resizable=0;html=1;;align=left;verticalAlign=bottom;" connectable="0" vertex="1" parent="QYKZDcX1cYeZKk25ewr2-158">
          <mxGeometry x="-1" relative="1" as="geometry">
            <mxPoint as="offset" />
          </mxGeometry>
        </mxCell>
        <mxCell id="QYKZDcX1cYeZKk25ewr2-161" value="" style="endArrow=classic;html=1;rounded=0;" edge="1" parent="1">
          <mxGeometry relative="1" as="geometry">
            <mxPoint x="270" y="1050" as="sourcePoint" />
            <mxPoint x="370" y="1050" as="targetPoint" />
          </mxGeometry>
        </mxCell>
        <mxCell id="QYKZDcX1cYeZKk25ewr2-162" value="opcode_o" style="edgeLabel;resizable=0;html=1;;align=center;verticalAlign=middle;" connectable="0" vertex="1" parent="QYKZDcX1cYeZKk25ewr2-161">
          <mxGeometry relative="1" as="geometry" />
        </mxCell>
        <mxCell id="QYKZDcX1cYeZKk25ewr2-163" value="(6)" style="edgeLabel;resizable=0;html=1;;align=left;verticalAlign=bottom;" connectable="0" vertex="1" parent="QYKZDcX1cYeZKk25ewr2-161">
          <mxGeometry x="-1" relative="1" as="geometry">
            <mxPoint as="offset" />
          </mxGeometry>
        </mxCell>
        <mxCell id="QYKZDcX1cYeZKk25ewr2-164" value="" style="endArrow=classic;html=1;rounded=0;" edge="1" parent="1">
          <mxGeometry relative="1" as="geometry">
            <mxPoint x="400" y="60" as="sourcePoint" />
            <mxPoint x="500" y="60" as="targetPoint" />
          </mxGeometry>
        </mxCell>
        <mxCell id="QYKZDcX1cYeZKk25ewr2-165" value="sel_i" style="edgeLabel;resizable=0;html=1;;align=center;verticalAlign=middle;" connectable="0" vertex="1" parent="QYKZDcX1cYeZKk25ewr2-164">
          <mxGeometry relative="1" as="geometry" />
        </mxCell>
        <mxCell id="QYKZDcX1cYeZKk25ewr2-166" value="(3)" style="edgeLabel;resizable=0;html=1;;align=left;verticalAlign=bottom;" connectable="0" vertex="1" parent="QYKZDcX1cYeZKk25ewr2-164">
          <mxGeometry x="-1" relative="1" as="geometry">
            <mxPoint as="offset" />
          </mxGeometry>
        </mxCell>
        <mxCell id="QYKZDcX1cYeZKk25ewr2-167" value="" style="endArrow=classic;html=1;rounded=0;" edge="1" parent="1">
          <mxGeometry relative="1" as="geometry">
            <mxPoint x="400" y="90" as="sourcePoint" />
            <mxPoint x="500" y="90" as="targetPoint" />
          </mxGeometry>
        </mxCell>
        <mxCell id="QYKZDcX1cYeZKk25ewr2-168" value="Accu_i" style="edgeLabel;resizable=0;html=1;;align=center;verticalAlign=middle;" connectable="0" vertex="1" parent="QYKZDcX1cYeZKk25ewr2-167">
          <mxGeometry relative="1" as="geometry" />
        </mxCell>
        <mxCell id="QYKZDcX1cYeZKk25ewr2-169" value="(8)" style="edgeLabel;resizable=0;html=1;;align=left;verticalAlign=bottom;" connectable="0" vertex="1" parent="QYKZDcX1cYeZKk25ewr2-167">
          <mxGeometry x="-1" relative="1" as="geometry">
            <mxPoint as="offset" />
          </mxGeometry>
        </mxCell>
        <mxCell id="QYKZDcX1cYeZKk25ewr2-170" value="" style="endArrow=classic;html=1;rounded=0;" edge="1" parent="1">
          <mxGeometry relative="1" as="geometry">
            <mxPoint x="400" y="120" as="sourcePoint" />
            <mxPoint x="500" y="120" as="targetPoint" />
          </mxGeometry>
        </mxCell>
        <mxCell id="QYKZDcX1cYeZKk25ewr2-171" value="const_i" style="edgeLabel;resizable=0;html=1;;align=center;verticalAlign=middle;" connectable="0" vertex="1" parent="QYKZDcX1cYeZKk25ewr2-170">
          <mxGeometry relative="1" as="geometry" />
        </mxCell>
        <mxCell id="QYKZDcX1cYeZKk25ewr2-172" value="(8)" style="edgeLabel;resizable=0;html=1;;align=left;verticalAlign=bottom;" connectable="0" vertex="1" parent="QYKZDcX1cYeZKk25ewr2-170">
          <mxGeometry x="-1" relative="1" as="geometry">
            <mxPoint as="offset" />
          </mxGeometry>
        </mxCell>
        <mxCell id="QYKZDcX1cYeZKk25ewr2-173" value="" style="endArrow=classic;html=1;rounded=0;" edge="1" parent="1">
          <mxGeometry relative="1" as="geometry">
            <mxPoint x="400" y="150" as="sourcePoint" />
            <mxPoint x="500" y="150" as="targetPoint" />
          </mxGeometry>
        </mxCell>
        <mxCell id="QYKZDcX1cYeZKk25ewr2-174" value="data_i" style="edgeLabel;resizable=0;html=1;;align=center;verticalAlign=middle;" connectable="0" vertex="1" parent="QYKZDcX1cYeZKk25ewr2-173">
          <mxGeometry relative="1" as="geometry" />
        </mxCell>
        <mxCell id="QYKZDcX1cYeZKk25ewr2-175" value="(8)" style="edgeLabel;resizable=0;html=1;;align=left;verticalAlign=bottom;" connectable="0" vertex="1" parent="QYKZDcX1cYeZKk25ewr2-173">
          <mxGeometry x="-1" relative="1" as="geometry">
            <mxPoint as="offset" />
          </mxGeometry>
        </mxCell>
        <mxCell id="QYKZDcX1cYeZKk25ewr2-176" value="Operandes_Multiplexer" style="whiteSpace=wrap;html=1;" vertex="1" parent="1">
          <mxGeometry x="500" y="40" width="150" height="130" as="geometry" />
        </mxCell>
        <mxCell id="QYKZDcX1cYeZKk25ewr2-177" value="" style="endArrow=classic;html=1;rounded=0;" edge="1" parent="1">
          <mxGeometry relative="1" as="geometry">
            <mxPoint x="650" y="90" as="sourcePoint" />
            <mxPoint x="750" y="90" as="targetPoint" />
          </mxGeometry>
        </mxCell>
        <mxCell id="QYKZDcX1cYeZKk25ewr2-178" value="oper1_o" style="edgeLabel;resizable=0;html=1;;align=center;verticalAlign=middle;" connectable="0" vertex="1" parent="QYKZDcX1cYeZKk25ewr2-177">
          <mxGeometry relative="1" as="geometry" />
        </mxCell>
        <mxCell id="QYKZDcX1cYeZKk25ewr2-179" value="(8)" style="edgeLabel;resizable=0;html=1;;align=left;verticalAlign=bottom;" connectable="0" vertex="1" parent="QYKZDcX1cYeZKk25ewr2-177">
          <mxGeometry x="-1" relative="1" as="geometry">
            <mxPoint as="offset" />
          </mxGeometry>
        </mxCell>
        <mxCell id="QYKZDcX1cYeZKk25ewr2-180" value="" style="endArrow=classic;html=1;rounded=0;" edge="1" parent="1">
          <mxGeometry relative="1" as="geometry">
            <mxPoint x="650" y="120" as="sourcePoint" />
            <mxPoint x="750" y="120" as="targetPoint" />
          </mxGeometry>
        </mxCell>
        <mxCell id="QYKZDcX1cYeZKk25ewr2-181" value="oper2_o" style="edgeLabel;resizable=0;html=1;;align=center;verticalAlign=middle;" connectable="0" vertex="1" parent="QYKZDcX1cYeZKk25ewr2-180">
          <mxGeometry relative="1" as="geometry" />
        </mxCell>
        <mxCell id="QYKZDcX1cYeZKk25ewr2-182" value="(8)" style="edgeLabel;resizable=0;html=1;;align=left;verticalAlign=bottom;" connectable="0" vertex="1" parent="QYKZDcX1cYeZKk25ewr2-180">
          <mxGeometry x="-1" relative="1" as="geometry">
            <mxPoint as="offset" />
          </mxGeometry>
        </mxCell>
        <mxCell id="QYKZDcX1cYeZKk25ewr2-183" value="" style="endArrow=classic;html=1;rounded=0;" edge="1" parent="1">
          <mxGeometry relative="1" as="geometry">
            <mxPoint x="400" y="220" as="sourcePoint" />
            <mxPoint x="500" y="220" as="targetPoint" />
          </mxGeometry>
        </mxCell>
        <mxCell id="QYKZDcX1cYeZKk25ewr2-184" value="clk_i" style="edgeLabel;resizable=0;html=1;;align=center;verticalAlign=middle;" connectable="0" vertex="1" parent="QYKZDcX1cYeZKk25ewr2-183">
          <mxGeometry relative="1" as="geometry" />
        </mxCell>
        <mxCell id="QYKZDcX1cYeZKk25ewr2-185" value="(1)" style="edgeLabel;resizable=0;html=1;;align=left;verticalAlign=bottom;" connectable="0" vertex="1" parent="QYKZDcX1cYeZKk25ewr2-183">
          <mxGeometry x="-1" relative="1" as="geometry">
            <mxPoint as="offset" />
          </mxGeometry>
        </mxCell>
        <mxCell id="QYKZDcX1cYeZKk25ewr2-186" value="" style="endArrow=classic;html=1;rounded=0;" edge="1" parent="1">
          <mxGeometry relative="1" as="geometry">
            <mxPoint x="400" y="280" as="sourcePoint" />
            <mxPoint x="500" y="280" as="targetPoint" />
          </mxGeometry>
        </mxCell>
        <mxCell id="QYKZDcX1cYeZKk25ewr2-187" value="oper1_i" style="edgeLabel;resizable=0;html=1;;align=center;verticalAlign=middle;" connectable="0" vertex="1" parent="QYKZDcX1cYeZKk25ewr2-186">
          <mxGeometry relative="1" as="geometry" />
        </mxCell>
        <mxCell id="QYKZDcX1cYeZKk25ewr2-188" value="(8)" style="edgeLabel;resizable=0;html=1;;align=left;verticalAlign=bottom;" connectable="0" vertex="1" parent="QYKZDcX1cYeZKk25ewr2-186">
          <mxGeometry x="-1" relative="1" as="geometry">
            <mxPoint as="offset" />
          </mxGeometry>
        </mxCell>
        <mxCell id="QYKZDcX1cYeZKk25ewr2-189" value="" style="endArrow=classic;html=1;rounded=0;" edge="1" parent="1">
          <mxGeometry relative="1" as="geometry">
            <mxPoint x="400" y="310" as="sourcePoint" />
            <mxPoint x="500" y="310" as="targetPoint" />
          </mxGeometry>
        </mxCell>
        <mxCell id="QYKZDcX1cYeZKk25ewr2-190" value="oper2_i" style="edgeLabel;resizable=0;html=1;;align=center;verticalAlign=middle;" connectable="0" vertex="1" parent="QYKZDcX1cYeZKk25ewr2-189">
          <mxGeometry relative="1" as="geometry" />
        </mxCell>
        <mxCell id="QYKZDcX1cYeZKk25ewr2-191" value="(8)" style="edgeLabel;resizable=0;html=1;;align=left;verticalAlign=bottom;" connectable="0" vertex="1" parent="QYKZDcX1cYeZKk25ewr2-189">
          <mxGeometry x="-1" relative="1" as="geometry">
            <mxPoint as="offset" />
          </mxGeometry>
        </mxCell>
        <mxCell id="QYKZDcX1cYeZKk25ewr2-192" value="" style="endArrow=classic;html=1;rounded=0;" edge="1" parent="1">
          <mxGeometry relative="1" as="geometry">
            <mxPoint x="400" y="340" as="sourcePoint" />
            <mxPoint x="500" y="340" as="targetPoint" />
          </mxGeometry>
        </mxCell>
        <mxCell id="QYKZDcX1cYeZKk25ewr2-193" value="oper_load_i" style="edgeLabel;resizable=0;html=1;;align=center;verticalAlign=middle;" connectable="0" vertex="1" parent="QYKZDcX1cYeZKk25ewr2-192">
          <mxGeometry relative="1" as="geometry" />
        </mxCell>
        <mxCell id="QYKZDcX1cYeZKk25ewr2-194" value="(1)" style="edgeLabel;resizable=0;html=1;;align=left;verticalAlign=bottom;" connectable="0" vertex="1" parent="QYKZDcX1cYeZKk25ewr2-192">
          <mxGeometry x="-1" relative="1" as="geometry">
            <mxPoint as="offset" />
          </mxGeometry>
        </mxCell>
        <mxCell id="QYKZDcX1cYeZKk25ewr2-195" value="Operandes_Register" style="whiteSpace=wrap;html=1;" vertex="1" parent="1">
          <mxGeometry x="500" y="200" width="140" height="160" as="geometry" />
        </mxCell>
        <mxCell id="QYKZDcX1cYeZKk25ewr2-196" value="" style="endArrow=classic;html=1;rounded=0;" edge="1" parent="1">
          <mxGeometry relative="1" as="geometry">
            <mxPoint x="640" y="250" as="sourcePoint" />
            <mxPoint x="740" y="250" as="targetPoint" />
          </mxGeometry>
        </mxCell>
        <mxCell id="QYKZDcX1cYeZKk25ewr2-197" value="operande1_o" style="edgeLabel;resizable=0;html=1;;align=center;verticalAlign=middle;" connectable="0" vertex="1" parent="QYKZDcX1cYeZKk25ewr2-196">
          <mxGeometry relative="1" as="geometry" />
        </mxCell>
        <mxCell id="QYKZDcX1cYeZKk25ewr2-198" value="(8)" style="edgeLabel;resizable=0;html=1;;align=left;verticalAlign=bottom;" connectable="0" vertex="1" parent="QYKZDcX1cYeZKk25ewr2-196">
          <mxGeometry x="-1" relative="1" as="geometry">
            <mxPoint as="offset" />
          </mxGeometry>
        </mxCell>
        <mxCell id="QYKZDcX1cYeZKk25ewr2-199" value="" style="endArrow=classic;html=1;rounded=0;" edge="1" parent="1">
          <mxGeometry relative="1" as="geometry">
            <mxPoint x="640" y="280" as="sourcePoint" />
            <mxPoint x="740" y="280" as="targetPoint" />
          </mxGeometry>
        </mxCell>
        <mxCell id="QYKZDcX1cYeZKk25ewr2-200" value="operande2_o" style="edgeLabel;resizable=0;html=1;;align=center;verticalAlign=middle;" connectable="0" vertex="1" parent="QYKZDcX1cYeZKk25ewr2-199">
          <mxGeometry relative="1" as="geometry" />
        </mxCell>
        <mxCell id="QYKZDcX1cYeZKk25ewr2-201" value="(8)" style="edgeLabel;resizable=0;html=1;;align=left;verticalAlign=bottom;" connectable="0" vertex="1" parent="QYKZDcX1cYeZKk25ewr2-199">
          <mxGeometry x="-1" relative="1" as="geometry">
            <mxPoint as="offset" />
          </mxGeometry>
        </mxCell>
        <mxCell id="QYKZDcX1cYeZKk25ewr2-202" value="" style="endArrow=classic;html=1;rounded=0;" edge="1" parent="1">
          <mxGeometry relative="1" as="geometry">
            <mxPoint x="400" y="250" as="sourcePoint" />
            <mxPoint x="500" y="250" as="targetPoint" />
          </mxGeometry>
        </mxCell>
        <mxCell id="QYKZDcX1cYeZKk25ewr2-203" value="reset_i" style="edgeLabel;resizable=0;html=1;;align=center;verticalAlign=middle;" connectable="0" vertex="1" parent="QYKZDcX1cYeZKk25ewr2-202">
          <mxGeometry relative="1" as="geometry" />
        </mxCell>
        <mxCell id="QYKZDcX1cYeZKk25ewr2-204" value="(1)" style="edgeLabel;resizable=0;html=1;;align=left;verticalAlign=bottom;" connectable="0" vertex="1" parent="QYKZDcX1cYeZKk25ewr2-202">
          <mxGeometry x="-1" relative="1" as="geometry">
            <mxPoint as="offset" />
          </mxGeometry>
        </mxCell>
        <mxCell id="QYKZDcX1cYeZKk25ewr2-206" value="" style="endArrow=classic;html=1;rounded=0;" edge="1" parent="1">
          <mxGeometry relative="1" as="geometry">
            <mxPoint x="400" y="410" as="sourcePoint" />
            <mxPoint x="500" y="410" as="targetPoint" />
          </mxGeometry>
        </mxCell>
        <mxCell id="QYKZDcX1cYeZKk25ewr2-207" value="clk_i" style="edgeLabel;resizable=0;html=1;;align=center;verticalAlign=middle;" connectable="0" vertex="1" parent="QYKZDcX1cYeZKk25ewr2-206">
          <mxGeometry relative="1" as="geometry" />
        </mxCell>
        <mxCell id="QYKZDcX1cYeZKk25ewr2-208" value="(1)" style="edgeLabel;resizable=0;html=1;;align=left;verticalAlign=bottom;" connectable="0" vertex="1" parent="QYKZDcX1cYeZKk25ewr2-206">
          <mxGeometry x="-1" relative="1" as="geometry">
            <mxPoint as="offset" />
          </mxGeometry>
        </mxCell>
        <mxCell id="QYKZDcX1cYeZKk25ewr2-209" value="" style="endArrow=classic;html=1;rounded=0;" edge="1" parent="1">
          <mxGeometry relative="1" as="geometry">
            <mxPoint x="400" y="470" as="sourcePoint" />
            <mxPoint x="500" y="470" as="targetPoint" />
          </mxGeometry>
        </mxCell>
        <mxCell id="QYKZDcX1cYeZKk25ewr2-210" value="PC_load_i" style="edgeLabel;resizable=0;html=1;;align=center;verticalAlign=middle;" connectable="0" vertex="1" parent="QYKZDcX1cYeZKk25ewr2-209">
          <mxGeometry relative="1" as="geometry" />
        </mxCell>
        <mxCell id="QYKZDcX1cYeZKk25ewr2-211" value="(1)" style="edgeLabel;resizable=0;html=1;;align=left;verticalAlign=bottom;" connectable="0" vertex="1" parent="QYKZDcX1cYeZKk25ewr2-209">
          <mxGeometry x="-1" relative="1" as="geometry">
            <mxPoint as="offset" />
          </mxGeometry>
        </mxCell>
        <mxCell id="QYKZDcX1cYeZKk25ewr2-212" value="" style="endArrow=classic;html=1;rounded=0;" edge="1" parent="1">
          <mxGeometry relative="1" as="geometry">
            <mxPoint x="400" y="500" as="sourcePoint" />
            <mxPoint x="500" y="500" as="targetPoint" />
          </mxGeometry>
        </mxCell>
        <mxCell id="QYKZDcX1cYeZKk25ewr2-213" value="PC_inc_i" style="edgeLabel;resizable=0;html=1;;align=center;verticalAlign=middle;" connectable="0" vertex="1" parent="QYKZDcX1cYeZKk25ewr2-212">
          <mxGeometry relative="1" as="geometry" />
        </mxCell>
        <mxCell id="QYKZDcX1cYeZKk25ewr2-214" value="(1)" style="edgeLabel;resizable=0;html=1;;align=left;verticalAlign=bottom;" connectable="0" vertex="1" parent="QYKZDcX1cYeZKk25ewr2-212">
          <mxGeometry x="-1" relative="1" as="geometry">
            <mxPoint as="offset" />
          </mxGeometry>
        </mxCell>
        <mxCell id="QYKZDcX1cYeZKk25ewr2-215" value="" style="endArrow=classic;html=1;rounded=0;" edge="1" parent="1">
          <mxGeometry relative="1" as="geometry">
            <mxPoint x="400" y="530" as="sourcePoint" />
            <mxPoint x="500" y="530" as="targetPoint" />
          </mxGeometry>
        </mxCell>
        <mxCell id="QYKZDcX1cYeZKk25ewr2-216" value="addr_i" style="edgeLabel;resizable=0;html=1;;align=center;verticalAlign=middle;" connectable="0" vertex="1" parent="QYKZDcX1cYeZKk25ewr2-215">
          <mxGeometry relative="1" as="geometry" />
        </mxCell>
        <mxCell id="QYKZDcX1cYeZKk25ewr2-217" value="(8)" style="edgeLabel;resizable=0;html=1;;align=left;verticalAlign=bottom;" connectable="0" vertex="1" parent="QYKZDcX1cYeZKk25ewr2-215">
          <mxGeometry x="-1" relative="1" as="geometry">
            <mxPoint as="offset" />
          </mxGeometry>
        </mxCell>
        <mxCell id="QYKZDcX1cYeZKk25ewr2-218" value="Program_Counter" style="whiteSpace=wrap;html=1;" vertex="1" parent="1">
          <mxGeometry x="500" y="390" width="130" height="160" as="geometry" />
        </mxCell>
        <mxCell id="QYKZDcX1cYeZKk25ewr2-219" value="" style="endArrow=classic;html=1;rounded=0;" edge="1" parent="1">
          <mxGeometry relative="1" as="geometry">
            <mxPoint x="630" y="470" as="sourcePoint" />
            <mxPoint x="730" y="470" as="targetPoint" />
          </mxGeometry>
        </mxCell>
        <mxCell id="QYKZDcX1cYeZKk25ewr2-220" value="PC_o" style="edgeLabel;resizable=0;html=1;;align=center;verticalAlign=middle;" connectable="0" vertex="1" parent="QYKZDcX1cYeZKk25ewr2-219">
          <mxGeometry relative="1" as="geometry" />
        </mxCell>
        <mxCell id="QYKZDcX1cYeZKk25ewr2-221" value="(8)" style="edgeLabel;resizable=0;html=1;;align=left;verticalAlign=bottom;" connectable="0" vertex="1" parent="QYKZDcX1cYeZKk25ewr2-219">
          <mxGeometry x="-1" relative="1" as="geometry">
            <mxPoint as="offset" />
          </mxGeometry>
        </mxCell>
        <mxCell id="QYKZDcX1cYeZKk25ewr2-225" value="" style="endArrow=classic;html=1;rounded=0;" edge="1" parent="1">
          <mxGeometry relative="1" as="geometry">
            <mxPoint x="400" y="440" as="sourcePoint" />
            <mxPoint x="500" y="440" as="targetPoint" />
          </mxGeometry>
        </mxCell>
        <mxCell id="QYKZDcX1cYeZKk25ewr2-226" value="reset_i" style="edgeLabel;resizable=0;html=1;;align=center;verticalAlign=middle;" connectable="0" vertex="1" parent="QYKZDcX1cYeZKk25ewr2-225">
          <mxGeometry relative="1" as="geometry" />
        </mxCell>
        <mxCell id="QYKZDcX1cYeZKk25ewr2-227" value="(1)" style="edgeLabel;resizable=0;html=1;;align=left;verticalAlign=bottom;" connectable="0" vertex="1" parent="QYKZDcX1cYeZKk25ewr2-225">
          <mxGeometry x="-1" relative="1" as="geometry">
            <mxPoint as="offset" />
          </mxGeometry>
        </mxCell>
        <mxCell id="QYKZDcX1cYeZKk25ewr2-228" value="" style="endArrow=classic;html=1;rounded=0;" edge="1" parent="1">
          <mxGeometry relative="1" as="geometry">
            <mxPoint x="400" y="600" as="sourcePoint" />
            <mxPoint x="500" y="600" as="targetPoint" />
          </mxGeometry>
        </mxCell>
        <mxCell id="QYKZDcX1cYeZKk25ewr2-229" value="clk_i" style="edgeLabel;resizable=0;html=1;;align=center;verticalAlign=middle;" connectable="0" vertex="1" parent="QYKZDcX1cYeZKk25ewr2-228">
          <mxGeometry relative="1" as="geometry" />
        </mxCell>
        <mxCell id="QYKZDcX1cYeZKk25ewr2-230" value="(1)" style="edgeLabel;resizable=0;html=1;;align=left;verticalAlign=bottom;" connectable="0" vertex="1" parent="QYKZDcX1cYeZKk25ewr2-228">
          <mxGeometry x="-1" relative="1" as="geometry">
            <mxPoint as="offset" />
          </mxGeometry>
        </mxCell>
        <mxCell id="QYKZDcX1cYeZKk25ewr2-231" value="" style="endArrow=classic;html=1;rounded=0;" edge="1" parent="1">
          <mxGeometry relative="1" as="geometry">
            <mxPoint x="400" y="660" as="sourcePoint" />
            <mxPoint x="500" y="660" as="targetPoint" />
          </mxGeometry>
        </mxCell>
        <mxCell id="QYKZDcX1cYeZKk25ewr2-232" value="wr_i" style="edgeLabel;resizable=0;html=1;;align=center;verticalAlign=middle;" connectable="0" vertex="1" parent="QYKZDcX1cYeZKk25ewr2-231">
          <mxGeometry relative="1" as="geometry" />
        </mxCell>
        <mxCell id="QYKZDcX1cYeZKk25ewr2-233" value="(1)" style="edgeLabel;resizable=0;html=1;;align=left;verticalAlign=bottom;" connectable="0" vertex="1" parent="QYKZDcX1cYeZKk25ewr2-231">
          <mxGeometry x="-1" relative="1" as="geometry">
            <mxPoint as="offset" />
          </mxGeometry>
        </mxCell>
        <mxCell id="QYKZDcX1cYeZKk25ewr2-234" value="" style="endArrow=classic;html=1;rounded=0;" edge="1" parent="1">
          <mxGeometry relative="1" as="geometry">
            <mxPoint x="400" y="690" as="sourcePoint" />
            <mxPoint x="500" y="690" as="targetPoint" />
          </mxGeometry>
        </mxCell>
        <mxCell id="QYKZDcX1cYeZKk25ewr2-235" value="addr_i" style="edgeLabel;resizable=0;html=1;;align=center;verticalAlign=middle;" connectable="0" vertex="1" parent="QYKZDcX1cYeZKk25ewr2-234">
          <mxGeometry relative="1" as="geometry" />
        </mxCell>
        <mxCell id="QYKZDcX1cYeZKk25ewr2-236" value="(8)" style="edgeLabel;resizable=0;html=1;;align=left;verticalAlign=bottom;" connectable="0" vertex="1" parent="QYKZDcX1cYeZKk25ewr2-234">
          <mxGeometry x="-1" relative="1" as="geometry">
            <mxPoint as="offset" />
          </mxGeometry>
        </mxCell>
        <mxCell id="QYKZDcX1cYeZKk25ewr2-237" value="" style="endArrow=classic;html=1;rounded=0;" edge="1" parent="1">
          <mxGeometry relative="1" as="geometry">
            <mxPoint x="400" y="720" as="sourcePoint" />
            <mxPoint x="500" y="720" as="targetPoint" />
          </mxGeometry>
        </mxCell>
        <mxCell id="QYKZDcX1cYeZKk25ewr2-238" value="data_i" style="edgeLabel;resizable=0;html=1;;align=center;verticalAlign=middle;" connectable="0" vertex="1" parent="QYKZDcX1cYeZKk25ewr2-237">
          <mxGeometry relative="1" as="geometry" />
        </mxCell>
        <mxCell id="QYKZDcX1cYeZKk25ewr2-239" value="(8)" style="edgeLabel;resizable=0;html=1;;align=left;verticalAlign=bottom;" connectable="0" vertex="1" parent="QYKZDcX1cYeZKk25ewr2-237">
          <mxGeometry x="-1" relative="1" as="geometry">
            <mxPoint as="offset" />
          </mxGeometry>
        </mxCell>
        <mxCell id="QYKZDcX1cYeZKk25ewr2-240" value="RAM" style="whiteSpace=wrap;html=1;" vertex="1" parent="1">
          <mxGeometry x="500" y="580" width="70" height="160" as="geometry" />
        </mxCell>
        <mxCell id="QYKZDcX1cYeZKk25ewr2-241" value="" style="endArrow=classic;html=1;rounded=0;" edge="1" parent="1">
          <mxGeometry relative="1" as="geometry">
            <mxPoint x="570" y="660" as="sourcePoint" />
            <mxPoint x="670" y="660" as="targetPoint" />
          </mxGeometry>
        </mxCell>
        <mxCell id="QYKZDcX1cYeZKk25ewr2-242" value="data_o" style="edgeLabel;resizable=0;html=1;;align=center;verticalAlign=middle;" connectable="0" vertex="1" parent="QYKZDcX1cYeZKk25ewr2-241">
          <mxGeometry relative="1" as="geometry" />
        </mxCell>
        <mxCell id="QYKZDcX1cYeZKk25ewr2-243" value="(8)" style="edgeLabel;resizable=0;html=1;;align=left;verticalAlign=bottom;" connectable="0" vertex="1" parent="QYKZDcX1cYeZKk25ewr2-241">
          <mxGeometry x="-1" relative="1" as="geometry">
            <mxPoint as="offset" />
          </mxGeometry>
        </mxCell>
        <mxCell id="QYKZDcX1cYeZKk25ewr2-244" value="" style="endArrow=classic;html=1;rounded=0;" edge="1" parent="1">
          <mxGeometry relative="1" as="geometry">
            <mxPoint x="400" y="630" as="sourcePoint" />
            <mxPoint x="500" y="630" as="targetPoint" />
          </mxGeometry>
        </mxCell>
        <mxCell id="QYKZDcX1cYeZKk25ewr2-245" value="cs_i" style="edgeLabel;resizable=0;html=1;;align=center;verticalAlign=middle;" connectable="0" vertex="1" parent="QYKZDcX1cYeZKk25ewr2-244">
          <mxGeometry relative="1" as="geometry" />
        </mxCell>
        <mxCell id="QYKZDcX1cYeZKk25ewr2-246" value="(1)" style="edgeLabel;resizable=0;html=1;;align=left;verticalAlign=bottom;" connectable="0" vertex="1" parent="QYKZDcX1cYeZKk25ewr2-244">
          <mxGeometry x="-1" relative="1" as="geometry">
            <mxPoint as="offset" />
          </mxGeometry>
        </mxCell>
        <mxCell id="QYKZDcX1cYeZKk25ewr2-247" value="" style="endArrow=classic;html=1;rounded=0;" edge="1" parent="1">
          <mxGeometry relative="1" as="geometry">
            <mxPoint x="400" y="790" as="sourcePoint" />
            <mxPoint x="500" y="790" as="targetPoint" />
          </mxGeometry>
        </mxCell>
        <mxCell id="QYKZDcX1cYeZKk25ewr2-248" value="pc_i" style="edgeLabel;resizable=0;html=1;;align=center;verticalAlign=middle;" connectable="0" vertex="1" parent="QYKZDcX1cYeZKk25ewr2-247">
          <mxGeometry relative="1" as="geometry" />
        </mxCell>
        <mxCell id="QYKZDcX1cYeZKk25ewr2-249" value="(8)" style="edgeLabel;resizable=0;html=1;;align=left;verticalAlign=bottom;" connectable="0" vertex="1" parent="QYKZDcX1cYeZKk25ewr2-247">
          <mxGeometry x="-1" relative="1" as="geometry">
            <mxPoint as="offset" />
          </mxGeometry>
        </mxCell>
        <mxCell id="QYKZDcX1cYeZKk25ewr2-259" value="ROM" style="whiteSpace=wrap;html=1;" vertex="1" parent="1">
          <mxGeometry x="500" y="770" width="70" height="40" as="geometry" />
        </mxCell>
        <mxCell id="QYKZDcX1cYeZKk25ewr2-260" value="" style="endArrow=classic;html=1;rounded=0;" edge="1" parent="1">
          <mxGeometry relative="1" as="geometry">
            <mxPoint x="570" y="790" as="sourcePoint" />
            <mxPoint x="670" y="790" as="targetPoint" />
          </mxGeometry>
        </mxCell>
        <mxCell id="QYKZDcX1cYeZKk25ewr2-261" value="ir_o" style="edgeLabel;resizable=0;html=1;;align=center;verticalAlign=middle;" connectable="0" vertex="1" parent="QYKZDcX1cYeZKk25ewr2-260">
          <mxGeometry relative="1" as="geometry" />
        </mxCell>
        <mxCell id="QYKZDcX1cYeZKk25ewr2-262" value="(14)" style="edgeLabel;resizable=0;html=1;;align=left;verticalAlign=bottom;" connectable="0" vertex="1" parent="QYKZDcX1cYeZKk25ewr2-260">
          <mxGeometry x="-1" relative="1" as="geometry">
            <mxPoint as="offset" />
          </mxGeometry>
        </mxCell>
        <mxCell id="QYKZDcX1cYeZKk25ewr2-266" value="" style="endArrow=classic;html=1;rounded=0;" edge="1" parent="1">
          <mxGeometry relative="1" as="geometry">
            <mxPoint x="400" y="860" as="sourcePoint" />
            <mxPoint x="500" y="860" as="targetPoint" />
          </mxGeometry>
        </mxCell>
        <mxCell id="QYKZDcX1cYeZKk25ewr2-267" value="clk_i" style="edgeLabel;resizable=0;html=1;;align=center;verticalAlign=middle;" connectable="0" vertex="1" parent="QYKZDcX1cYeZKk25ewr2-266">
          <mxGeometry relative="1" as="geometry" />
        </mxCell>
        <mxCell id="QYKZDcX1cYeZKk25ewr2-268" value="(1)" style="edgeLabel;resizable=0;html=1;;align=left;verticalAlign=bottom;" connectable="0" vertex="1" parent="QYKZDcX1cYeZKk25ewr2-266">
          <mxGeometry x="-1" relative="1" as="geometry">
            <mxPoint as="offset" />
          </mxGeometry>
        </mxCell>
        <mxCell id="QYKZDcX1cYeZKk25ewr2-269" value="" style="endArrow=classic;html=1;rounded=0;" edge="1" parent="1">
          <mxGeometry relative="1" as="geometry">
            <mxPoint x="400" y="890" as="sourcePoint" />
            <mxPoint x="500" y="890" as="targetPoint" />
          </mxGeometry>
        </mxCell>
        <mxCell id="QYKZDcX1cYeZKk25ewr2-270" value="reset_i" style="edgeLabel;resizable=0;html=1;;align=center;verticalAlign=middle;" connectable="0" vertex="1" parent="QYKZDcX1cYeZKk25ewr2-269">
          <mxGeometry relative="1" as="geometry" />
        </mxCell>
        <mxCell id="QYKZDcX1cYeZKk25ewr2-271" value="(1)" style="edgeLabel;resizable=0;html=1;;align=left;verticalAlign=bottom;" connectable="0" vertex="1" parent="QYKZDcX1cYeZKk25ewr2-269">
          <mxGeometry x="-1" relative="1" as="geometry">
            <mxPoint as="offset" />
          </mxGeometry>
        </mxCell>
        <mxCell id="QYKZDcX1cYeZKk25ewr2-272" value="" style="endArrow=classic;html=1;rounded=0;" edge="1" parent="1">
          <mxGeometry relative="1" as="geometry">
            <mxPoint x="400" y="920" as="sourcePoint" />
            <mxPoint x="500" y="920" as="targetPoint" />
          </mxGeometry>
        </mxCell>
        <mxCell id="QYKZDcX1cYeZKk25ewr2-273" value="Accu_in" style="edgeLabel;resizable=0;html=1;;align=center;verticalAlign=middle;" connectable="0" vertex="1" parent="QYKZDcX1cYeZKk25ewr2-272">
          <mxGeometry relative="1" as="geometry" />
        </mxCell>
        <mxCell id="QYKZDcX1cYeZKk25ewr2-274" value="(8)" style="edgeLabel;resizable=0;html=1;;align=left;verticalAlign=bottom;" connectable="0" vertex="1" parent="QYKZDcX1cYeZKk25ewr2-272">
          <mxGeometry x="-1" relative="1" as="geometry">
            <mxPoint as="offset" />
          </mxGeometry>
        </mxCell>
        <mxCell id="QYKZDcX1cYeZKk25ewr2-275" value="" style="endArrow=classic;html=1;rounded=0;" edge="1" parent="1">
          <mxGeometry relative="1" as="geometry">
            <mxPoint x="400" y="950" as="sourcePoint" />
            <mxPoint x="500" y="950" as="targetPoint" />
          </mxGeometry>
        </mxCell>
        <mxCell id="QYKZDcX1cYeZKk25ewr2-276" value="Accu_load_i" style="edgeLabel;resizable=0;html=1;;align=center;verticalAlign=middle;" connectable="0" vertex="1" parent="QYKZDcX1cYeZKk25ewr2-275">
          <mxGeometry relative="1" as="geometry" />
        </mxCell>
        <mxCell id="QYKZDcX1cYeZKk25ewr2-277" value="(1)" style="edgeLabel;resizable=0;html=1;;align=left;verticalAlign=bottom;" connectable="0" vertex="1" parent="QYKZDcX1cYeZKk25ewr2-275">
          <mxGeometry x="-1" relative="1" as="geometry">
            <mxPoint as="offset" />
          </mxGeometry>
        </mxCell>
        <mxCell id="QYKZDcX1cYeZKk25ewr2-278" value="W_Register" style="whiteSpace=wrap;html=1;" vertex="1" parent="1">
          <mxGeometry x="500" y="840" width="90" height="130" as="geometry" />
        </mxCell>
        <mxCell id="QYKZDcX1cYeZKk25ewr2-279" value="" style="endArrow=classic;html=1;rounded=0;" edge="1" parent="1">
          <mxGeometry relative="1" as="geometry">
            <mxPoint x="590" y="890" as="sourcePoint" />
            <mxPoint x="690" y="890" as="targetPoint" />
          </mxGeometry>
        </mxCell>
        <mxCell id="QYKZDcX1cYeZKk25ewr2-280" value="Accu_o" style="edgeLabel;resizable=0;html=1;;align=center;verticalAlign=middle;" connectable="0" vertex="1" parent="QYKZDcX1cYeZKk25ewr2-279">
          <mxGeometry relative="1" as="geometry" />
        </mxCell>
        <mxCell id="QYKZDcX1cYeZKk25ewr2-281" value="(8)" style="edgeLabel;resizable=0;html=1;;align=left;verticalAlign=bottom;" connectable="0" vertex="1" parent="QYKZDcX1cYeZKk25ewr2-279">
          <mxGeometry x="-1" relative="1" as="geometry">
            <mxPoint as="offset" />
          </mxGeometry>
        </mxCell>
      </root>
    </mxGraphModel>
  </diagram>
</mxfile>
